<svg width="48" height="48" viewBox="0 0 48 48" fill="none" xmlns="http://www.w3.org/2000/svg">
  <defs>
    <linearGradient id="pin" x1="10" y1="2" x2="38" y2="48" gradientUnits="userSpaceOnUse">
      <stop offset="0%" stop-color="#1a6bff"/>
      <stop offset="100%" stop-color="#003ec7"/>
    </linearGradient>
  </defs>
  <!-- Pin body -->
  <path d="M24 2 C13.51 2 5 10.51 5 21 C5 29.28 9.82 36.34 15.14 41.34 L22.82 48.46 C23.51 49.1 24.49 49.1 25.18 48.46 L32.86 41.34 C38.18 36.34 43 29.28 43 21 C43 10.51 34.49 2 24 2Z" fill="url(#pin)"/>
  <!-- White disc -->
  <circle cx="24" cy="20" r="11.5" fill="white"/>
  <!-- Adult head -->
  <circle cx="21" cy="16" r="3" fill="#FF8C00"/>
  <!-- Adult body -->
  <path d="M15 26 C15 22.13 17.69 20 21 20 C24.31 20 27 22.13 27 26" fill="#FF8C00"/>
  <!-- Child head -->
  <circle cx="28.5" cy="17" r="2.2" fill="#FF8C00" opacity="0.9"/>
  <!-- Child body -->
  <path d="M24 26 C24 23.24 25.96 21.5 28.5 21.5 C31.04 21.5 33 23.24 33 26" fill="#FF8C00" opacity="0.9"/>
</svg>
